{"title":"Alien Siege 2018 Movies 720p BluRay x264 5.1 with Sample ☻rDX☻","magnet":"magnet:?xt=urn:btih:edc20400fe5be2decf98511f48d862fc4eff83d5&dn=Alien+Siege+2018+Movies+720p+BluRay+x264+5.1+with+Sample+%E2%98%BBrDX%E2%98%BB&tr=udp%3A%2F%2Ftracker.leechers-paradise.org%3A6969&tr=udp%3A%2F%2Fzer0day.ch%3A1337&tr=udp%3A%2F%2Fopen.demonii.com%3A1337&tr=udp%3A%2F%2Ftracker.coppersurfer.tk%3A6969&tr=udp%3A%2F%2Fexodus.desync.com%3A6969","uploader":"basicssom","categoryP":"video","categoryS":"hd___movies","size":"1049930590","seeders":"0","leechers":"0","description":"Alien Siege 2018 Movies 720p BluRay x264 5.1 with Sample &#x263B;rDX&#x263B;\r\n\r\nSCREEN SHOTS &amp; POSTER:\r\n   <a href=\"\nhttp://iphonehosting.eu/2018/9/television/index.html\" rel=\"nofollow\" target=\"_NEW\">\nhttp://iphonehosting.eu/2018/9/television/index.html</a> <a href=\"\nhttp://iphonehosting.eu/2018/9/television/1.html\" rel=\"nofollow\" target=\"_NEW\">\nhttp://iphonehosting.eu/2018/9/television/1.html</a> <a href=\"\nhttp://iphonehosting.eu/2018/9/television/2.html\" rel=\"nofollow\" target=\"_NEW\">\nhttp://iphonehosting.eu/2018/9/television/2.html</a>   <a href=\"\nhttp://iphonehosting.eu/2018/9/television/3.html\" rel=\"nofollow\" target=\"_NEW\">\nhttp://iphonehosting.eu/2018/9/television/3.html</a>   <a href=\"\nhttp://iphonehosting.eu/2018/9/television/4.html\" rel=\"nofollow\" target=\"_NEW\">\nhttp://iphonehosting.eu/2018/9/television/4.html</a>   <a href=\"\nhttp://iphonehosting.eu/2018/9/television/5.html\" rel=\"nofollow\" target=\"_NEW\">\nhttp://iphonehosting.eu/2018/9/television/5.html</a>   <a href=\"\nhttp://iphonehosting.eu/2018/9/television/6.html\" rel=\"nofollow\" target=\"_NEW\">\nhttp://iphonehosting.eu/2018/9/television/6.html</a>   <a href=\"\nhttp://iphonehosting.eu/2018/9/television/7.html\" rel=\"nofollow\" target=\"_NEW\">\nhttp://iphonehosting.eu/2018/9/television/7.html</a>   <a href=\"\nhttp://iphonehosting.eu/2018/9/television/8.html\" rel=\"nofollow\" target=\"_NEW\">\nhttp://iphonehosting.eu/2018/9/television/8.html</a>   <a href=\"\nhttp://iphonehosting.eu/2018/9/television/9.html\" rel=\"nofollow\" target=\"_NEW\">\nhttp://iphonehosting.eu/2018/9/television/9.html</a>   <a href=\"\nhttp://iphonehosting.eu/2018/9/television/10.html\" rel=\"nofollow\" target=\"_NEW\">\nhttp://iphonehosting.eu/2018/9/television/10.html</a>\r\n\r\nFile size                                : 992 MiB\r\nDuration                                 : 1 h 25 min\r\nOverall bit rate                         : 1 624 kb/s\r\nMovie name                               : Alien Siege 2018 Movies 720p BluRay x264 5.1 &#x263B;rDX&#x263B;\r\n\r\nVideo\r\nID                                       : 2\r\nFormat                                   : AVC\r\nFormat/Info                              : Advanced Video Codec\r\nFormat profile                           : High@L4.1\r\nFormat settings, CABAC                   : Yes\r\nFormat settings, ReFrames                : 4 frames\r\nCodec ID                                 : V_MPEG4/ISO/AVC\r\nDuration                                 : 1 h 25 min\r\nBit rate                                 : 1 200 kb/s\r\nWidth                                    : 1 280 pixels\r\nHeight                                   : 720 pixels\r\nDisplay aspect ratio                     : 16:9\r\nFrame rate mode                          : Constant\r\nFrame rate                               : 23.976 (23976/1000) FPS\r\nOriginal frame rate                      : 23.976 (24000/1001) FPS\r\nColor space                              : YUV\r\nChroma subsampling                       : 4:2:0\r\nBit depth                                : 8 bits\r\nScan type                                : Progressive\r\nBits/(Pixel*Frame)                       : 0.054\r\nStream size                              : 699 MiB (70%)\r\nTitle                                    : &#x263B;rDX&#x263B;\r\nWriting library                          : x264\r\n\r\nAudio\r\nID                                       : 1\r\nFormat                                   : AC-3\r\nFormat/Info                              : Audio Coding 3\r\nMode extension                           : CM (complete main)\r\nFormat settings, Endianness              : Big\r\nCodec ID                                 : A_AC3\r\nDuration                                 : 1 h 25 min\r\nBit rate mode                            : Constant\r\nBit rate                                 : 448 kb/s\r\nChannel(s)                               : 6 channels\r\nChannel positions                        : Front: L C R, Side: L R, LFE\r\nSampling rate                            : 48.0 kHz\r\nFrame rate                               : 31.250 FPS (1536 spf)\r\nBit depth                                : 16 bits\r\nCompression mode                         : Lossy\r\nStream size                              : 274 MiB (28%)\r\nTitle                                    : &#x263B;rDX&#x263B;\r\nDefault                                  : Yes\r\nForced                                   : No","last_updated":"2018-09-11T12:14:32.682Z","parsed":{"xt":"urn:btih:edc20400fe5be2decf98511f48d862fc4eff83d5","dn":"Alien Siege 2018 Movies 720p BluRay x264 5.1 with Sample ☻rDX☻","tr":["udp://exodus.desync.com:6969","udp://open.demonii.com:1337","udp://tracker.coppersurfer.tk:6969","udp://tracker.leechers-paradise.org:6969","udp://zer0day.ch:1337"],"infoHash":"edc20400fe5be2decf98511f48d862fc4eff83d5","infoHashBuffer":{"type":"Buffer","data":[237,194,4,0,254,91,226,222,207,152,81,31,72,216,98,252,78,255,131,213]},"name":"Alien Siege 2018 Movies 720p BluRay x264 5.1 with Sample ☻rDX☻","announce":["udp://exodus.desync.com:6969","udp://open.demonii.com:1337","udp://tracker.coppersurfer.tk:6969","udp://tracker.leechers-paradise.org:6969","udp://zer0day.ch:1337"],"urlList":[]}}